#!OML:ASF X:\für Bonn\!DataBase\2005_08_10_Bjorn_Final\c3d\bjorn.ASF
:FULLY-SPECIFIED
:DEGREES
47
root -12.3714 18.5305 1.42741 354.866 95.2504 361.805
lowerback 6.99707 -2.09497 9.48029
upperback 17.4399 -1.67716 2.23825
thorax 15.3718 0.913773 -2.61625
lowerneck 10.6817 2.77213 2.52763
upperneck -4.47893 3.29946 -14.2232
head -2.81531 2.30836 -4.94337
rclavicle 7.95139e-015 -1.59028e-014
rhumerus -21.8425 -19.7554 -82.3246
rradius 45.6491
rwrist 1.64556
rhand -7.99093 14.0315
rfingers 7.12502
rthumb 17.9176 -15.1631
lclavicle 7.95139e-015 -1.59028e-014
lhumerus -24.2319 -2.54192 83.34
lradius 50.8211
lwrist -12.8199
lhand -40.72 -12.0285
lfingers 7.12502
lthumb -13.6618 17.5031
rfemur -4.63171 -2.75779 19.475
rtibia 40.5476
rfoot -25.2589 10.8417
rtoes -11.2591
lfemur -36.7376 9.38774 -12.8733
ltibia 39.2516
lfoot 10.1074 8.74452
ltoes -12.3474
48
root -12.3098 18.5165 1.41402 356.347 95.2226 363.228
lowerback 6.81763 -2.07505 9.55817
upperback 17.4136 -1.68556 2.28012
thorax 15.4526 0.915601 -2.61423
lowerneck 10.729 2.79914 2.44692
upperneck -4.51043 3.32272 -14.1962
head -2.83232 2.32331 -4.92453
rclavicle 3.81667e-014 7.31528e-014
rhumerus -21.8912 -19.8862 -82.3384
rradius 45.6038
rwrist 1.69339
rhand -7.97185 13.9588
rfingers 7.12502
rthumb 17.9359 -15.2341
lclavicle 3.81667e-014 7.31528e-014
lhumerus -24.1277 -2.43839 83.3467
lradius 50.7194
lwrist -12.8588
lhand -40.8172 -12.1578
lfingers 7.12502
lthumb -13.7555 17.3675
rfemur -4.493 -2.73343 19.5886
rtibia 40.5821
rfoot -25.4857 10.9098
rtoes -11.1596
lfemur -36.3122 9.27474 -12.5592
ltibia 38.1429
lfoot 10.6265 8.16554
ltoes -12.9201
49
root -12.2493 18.503 1.39892 357.639 95.198 364.46
lowerback 6.6515 -2.07222 9.61168
upperback 17.3967 -1.71397 2.31675
thorax 15.5343 0.905744 -2.60549
lowerneck 10.7391 2.83037 2.34746
upperneck -4.51634 3.3526 -14.1729
head -2.83533 2.33994 -4.90254
rclavicle -7.95139e-016 7.95139e-015
rhumerus -21.912 -19.9858 -82.3547
rradius 45.5621
rwrist 1.74357
rhand -7.96971 13.9008
rfingers 7.12502
rthumb 17.938 -15.292
lclavicle -7.95139e-016 7.95139e-015
lhumerus -24.0194 -2.27875 83.3527
lradius 50.6415
lwrist -12.8761
lhand -40.8471 -12.2425
lfingers 7.12502
lthumb -13.7843 17.2809
rfemur -4.34982 -2.7218 19.6727
rtibia 40.608
rfoot -25.6931 10.9812
rtoes -11.1291
lfemur -35.8968 9.13319 -12.2571
ltibia 37.0851
lfoot 11.1165 7.57082
ltoes -13.3196
50
root -12.1872 18.4905 1.38449 358.67 95.152 365.418
lowerback 6.45944 -2.05204 9.61167
upperback 17.3861 -1.72234 2.3531
thorax 15.6426 0.899176 -2.56671
lowerneck 10.7822 2.85509 2.26631
upperneck -4.56707 3.3695 -14.169
head -2.85775 2.35367 -4.89095
rclavicle 0 -2.70347e-014
rhumerus -21.9281 -20.0757 -82.361
rradius 45.5093
rwrist 1.79923
rhand -7.95768 13.9017
rfingers 7.12502
rthumb 17.9496 -15.29
lclavicle 0 -2.70347e-014
lhumerus -23.8598 -2.0883 83.3604
lradius 50.4852
lwrist -12.9971
lhand -40.8688 -12.351
lfingers 7.12502
lthumb -13.8051 17.171
rfemur -4.21731 -2.68872 19.7278
rtibia 40.622
rfoot -25.8862 11.0621
rtoes -11.073
lfemur -35.4975 9.0019 -11.9806
ltibia 36.0688
lfoot 11.537 7.04001
ltoes -13.7509
51
root -12.1254 18.4776 1.36912 359.713 95.1354 366.403
lowerback 6.28191 -2.04822 9.62371
upperback 17.3873 -1.74784 2.36941
thorax 15.7549 0.889444 -2.55748
lowerneck 10.7763 2.87994 2.23288
upperneck -4.60622 3.39429 -14.1618
head -2.86696 2.36748 -4.88494
rclavicle -2.14687e-014 -4.92986e-014
rhumerus -21.9105 -20.1715 -82.4205
rradius 45.445
rwrist 1.87939
rhand -7.98942 13.8826
rfingers 7.12502
rthumb 17.919 -15.3119
lclavicle -2.14687e-014 -4.92986e-014
lhumerus -23.7014 -1.91679 83.3357
lradius 50.3761
lwrist -13.112
lhand -40.8674 -12.3544
lfingers 7.12502
lthumb -13.8039 17.1677
rfemur -4.05859 -2.6961 19.7822
rtibia 40.6216
rfoot -26.0879 11.1202
rtoes -11.1403
lfemur -35.1017 8.84588 -11.7073
ltibia 35.0969
lfoot 11.9257 6.47998
ltoes -14.2425
52
root -12.0637 18.4648 1.35288 360.788 95.1224 367.426
lowerback 6.11976 -2.05482 9.60718
upperback 17.3779 -1.7869 2.40204
thorax 15.8418 0.865748 -2.51576
lowerneck 10.8378 2.91844 2.17827
upperneck -4.69253 3.42746 -14.1773
head -2.90086 2.39151 -4.88583
rclavicle -1.11319e-014 3.02153e-014
rhumerus -21.9377 -20.2443 -82.4531
rradius 45.4138
rwrist 1.98748
rhand -8.01331 13.8599
rfingers 7.12502
rthumb 17.896 -15.3367
lclavicle -1.11319e-014 3.02153e-014
lhumerus -23.5484 -1.70443 83.341
lradius 50.2241
lwrist -13.1934
lhand -40.8842 -12.4192
lfingers 7.12502
lthumb -13.8201 17.1017
rfemur -3.88309 -2.69284 19.8351
rtibia 40.6028
rfoot -26.2526 11.1962
rtoes -11.0161
lfemur -34.7056 8.64129 -11.4198
ltibia 34.1735
lfoot 12.2413 5.99502
ltoes -14.5213
53
root -12.0005 18.4529 1.33646 362.328 95.0866 368.929
lowerback 5.98363 -2.05045 9.66208
upperback 17.3617 -1.8077 2.4162
thorax 15.9064 0.861521 -2.53288
lowerneck 10.8994 2.9469 2.14923
upperneck -4.72236 3.45817 -14.1489
head -2.91822 2.40884 -4.8759
rclavicle -1.51076e-014 1.59028e-015
rhumerus -21.994 -20.3168 -82.5018
rradius 45.3821
rwrist 2.08737
rhand -8.02011 13.8276
rfingers 7.12502
rthumb 17.8895 -15.3696
lclavicle -1.51076e-014 1.59028e-015
lhumerus -23.4403 -1.67015 83.2957
lradius 50.1136
lwrist -13.1607
lhand -40.8914 -12.3554
lfingers 7.12502
lthumb -13.827 17.165
rfemur -3.67423 -2.67148 19.9296
rtibia 40.5537
rfoot -26.4342 11.2641
rtoes -11.099
lfemur -34.3031 8.46801 -11.0795
ltibia 33.3074
lfoot 12.4945 5.50275
ltoes -14.681
54
root -11.9375 18.4416 1.31963 363.911 95.0664 370.466
lowerback 5.83408 -2.06512 9.6658
upperback 17.3655 -1.85608 2.45871
thorax 16.0028 0.836907 -2.49083
lowerneck 10.8811 2.97946 2.08007
upperneck -4.76049 3.48818 -14.1726
head -2.92505 2.42762 -4.87361
rclavicle 1.82882e-014 7.79236e-014
rhumerus -21.9689 -20.3332 -82.5289
rradius 45.3408
rwrist 2.19628
rhand -8.01478 13.811
rfingers 7.12502
rthumb 17.8946 -15.3857
lclavicle 1.82882e-014 7.79236e-014
lhumerus -23.2712 -1.54129 83.2917
lradius 49.9862
lwrist -13.1638
lhand -40.8892 -12.2266
lfingers 7.12502
lthumb -13.8248 17.294
rfemur -3.45812 -2.65457 20.0281
rtibia 40.4721
rfoot -26.583 11.3566
rtoes -10.9513
lfemur -33.9301 8.287 -10.7473
ltibia 32.5013
lfoot 12.7166 5.01817
ltoes -14.6054
55
root -11.8743 18.4307 1.30199 366.221 95.057 372.769
lowerback 5.73783 -2.08479 9.75131
upperback 17.3576 -1.90589 2.50844
thorax 16.0513 0.820452 -2.4853
lowerneck 10.9091 3.01527 2.03662
upperneck -4.78592 3.52672 -14.1852
head -2.93467 2.45032 -4.8735
rclavicle -2.78299e-014 -5.88403e-014
rhumerus -21.9943 -20.2607 -82.5067
rradius 45.2935
rwrist 2.24194
rhand -8.01376 13.7196
rfingers 7.12502
rthumb 17.8956 -15.4771
lclavicle -2.78299e-014 -5.88403e-014
lhumerus -23.1968 -1.50733 83.2933
lradius 49.9113
lwrist -13.0555
lhand -40.8945 -12.1729
lfingers 7.12502
lthumb -13.8299 17.3473
rfemur -3.19029 -2.63556 20.1992
rtibia 40.3647
rfoot -26.7297 11.4284
rtoes -10.8878
lfemur -33.523 8.06144 -10.3234
ltibia 31.7575
lfoot 12.8586 4.57547
ltoes -14.3135
56
root -11.8107 18.4218 1.28321 368.355 95.0286 374.86
lowerback 5.60678 -2.0755 9.83077
upperback 17.3482 -1.92097 2.5387
thorax 16.1242 0.822064 -2.49661
lowerneck 10.9467 3.01507 2.06598
upperneck -4.8243 3.52331 -14.2222
head -2.9516 2.45267 -4.89165
rclavicle -2.78299e-014 -2.54444e-014
rhumerus -22.0072 -20.2209 -82.4859
rradius 45.2542
rwrist 2.27551
rhand -8.01053 13.5884
rfingers 7.12502
rthumb 17.8987 -15.608
lclavicle -2.78299e-014 -2.54444e-014
lhumerus -23.0573 -1.54147 83.2798
lradius 49.7956
lwrist -12.9616
lhand -40.9277 -12.0688
lfingers 7.12502
lthumb -13.8619 17.4493
rfemur -2.94703 -2.59353 20.3472
rtibia 40.2314
rfoot -26.8745 11.4632
rtoes -10.9669
lfemur -33.1588 7.82311 -9.92228
ltibia 31.0704
lfoot 12.9575 4.17275
ltoes -13.815
57
root -11.7473 18.412 1.26426 370.441 95.0415 376.9
lowerback 5.48019 -2.08493 9.88487
upperback 17.3368 -1.96131 2.58392
thorax 16.1881 0.80618 -2.47908
lowerneck 11.0032 3.02197 2.07156
upperneck -4.89422 3.52171 -14.28
head -2.98116 2.45974 -4.91376
rclavicle -7.95139e-016 -3.65764e-014
rhumerus -21.9977 -20.0835 -82.4451
rradius 45.1979
rwrist 2.24168
rhand -8.003 13.5179
rfingers 7.12502
rthumb 17.906 -15.6778
lclavicle -7.95139e-016 -3.65764e-014
lhumerus -22.967 -1.54887 83.2989
lradius 49.7227
lwrist -12.8643
lhand -40.9598 -11.9677
lfingers 7.12502
lthumb -13.8929 17.5482
rfemur -2.70077 -2.5893 20.4875
rtibia 40.0893
rfoot -26.9975 11.5443
rtoes -10.881
lfemur -32.8154 7.59567 -9.53896
ltibia 30.4301
lfoot 13.0618 3.75925
ltoes -13.1806
58
root -11.683 18.404 1.24517 372.307 95.0477 378.699
lowerback 5.33453 -2.06646 9.93458
upperback 17.3245 -1.96452 2.59835
thorax 16.2671 0.810761 -2.49178
lowerneck 11.0464 3.00782 2.1711
upperneck -4.93538 3.50724 -14.3332
head -2.99916 2.45586 -4.94832
rclavicle -3.18055e-015 -9.54166e-015
rhumerus -21.9816 -20.0791 -82.4377
rradius 45.1264
rwrist 2.21914
rhand -7.95786 13.3847
rfingers 7.12502
rthumb 17.9494 -15.807
lclavicle -3.18055e-015 -9.54166e-015
lhumerus -22.856 -1.64041 83.2757
lradius 49.6629
lwrist -12.7933
lhand -40.9463 -11.7352
lfingers 7.12502
lthumb -13.8799 17.7817
rfemur -2.46556 -2.55239 20.6107
rtibia 39.9311
rfoot -27.1154 11.5719
rtoes -10.8965
lfemur -32.4962 7.33884 -9.17888
ltibia 29.8401
lfoot 13.1043 3.39307
ltoes -12.7048
59
root -11.6177 18.3971 1.22508 373.973 95.0387 380.294
lowerback 5.19409 -2.04826 9.94296
upperback 17.2992 -1.96814 2.61803
thorax 16.3248 0.806555 -2.477
lowerneck 11.1309 2.99233 2.23589
upperneck -4.99871 3.48338 -14.3863
head -3.03225 2.45074 -4.97839
rclavicle 2.46493e-014 2.54444e-014
rhumerus -21.9675 -20.0857 -82.4123
rradius 45.0055
rwrist 2.27367
rhand -7.95632 13.3296
rfingers 7.12502
rthumb 17.9509 -15.862
lclavicle 2.46493e-014 2.54444e-014
lhumerus -22.7777 -1.71268 83.2623
lradius 49.5781
lwrist -12.7067
lhand -40.9869 -11.6433
lfingers 7.12502
lthumb -13.919 17.8708
rfemur -2.23069 -2.52294 20.7036
rtibia 39.7723
rfoot -27.2546 11.6024
rtoes -11.0209
lfemur -32.1863 7.09772 -8.84518
ltibia 29.2855
lfoot 13.1704 3.03755
ltoes -11.9292
